<?xml version="1.0" standalone="no"?>
<!DOCTYPE svg PUBLIC "-//W3C//DTD SVG 20010904//EN"
 "http://www.w3.org/TR/2001/REC-SVG-20010904/DTD/svg10.dtd">
<svg version="1.0" xmlns="http://www.w3.org/2000/svg"
 width="225.000000pt" height="225.000000pt" viewBox="0 0 225.000000 225.000000"
 preserveAspectRatio="xMidYMid meet">
<metadata>
Created by potrace 1.14, written by Peter Selinger 2001-2017
</metadata>
<g transform="translate(0.000000,225.000000) scale(0.100000,-0.100000)"
fill="#000000" stroke="none">
<path d="M2 2224 c2 -22 13 -24 13 -1 0 5 6 12 14 15 9 3 11 0 6 -8 -5 -9 -2
-10 14 -5 11 3 21 3 21 -2 0 -15 -35 -40 -50 -36 -9 3 -8 0 3 -7 9 -6 15 -17
11 -23 -3 -7 1 -4 9 6 10 12 17 14 22 8 3 -6 -1 -18 -9 -27 -9 -8 -16 -20 -16
-26 0 -5 -6 -8 -12 -5 -7 2 -13 9 -13 15 0 5 -3 13 -6 16 -3 3 -6 -15 -6 -40
-1 -29 3 -43 11 -41 6 3 10 10 8 17 -2 9 7 11 35 6 21 -3 50 -6 66 -6 19 0 27
-5 27 -17 0 -11 3 -14 8 -8 4 6 13 10 20 9 6 -1 18 -2 26 -3 8 0 17 -10 21
-20 4 -13 12 -18 22 -14 9 4 19 -1 25 -10 5 -10 18 -17 28 -17 12 0 20 -7 21
-17 0 -12 2 -13 6 -5 4 10 8 10 19 1 11 -9 14 -8 14 7 1 16 3 15 15 -6 8 -14
14 -21 15 -16 0 5 7 3 15 -4 8 -7 13 -16 10 -20 -3 -5 11 -7 31 -4 21 3 33 0
30 -5 -4 -5 -2 -13 4 -16 6 -4 10 -3 9 2 -4 21 2 44 10 39 5 -3 12 1 15 9 4
12 10 14 25 5 22 -11 37 2 25 23 -5 7 0 6 11 -3 10 -8 16 -10 12 -4 -4 7 0 17
8 24 8 7 13 16 10 20 -3 4 7 11 22 15 17 4 29 2 34 -7 7 -11 9 -11 9 0 0 7 4
11 9 8 4 -3 16 3 26 14 21 24 40 26 31 5 -3 -8 -1 -15 4 -15 6 0 10 5 10 12 0
9 3 8 13 -1 10 -11 10 -14 0 -18 -21 -8 -15 -20 10 -19 17 1 22 -5 24 -24 3
-53 7 -79 12 -75 2 3 11 -1 19 -8 13 -10 14 -9 7 3 -13 20 -15 70 -3 70 5 0 6
5 2 12 -4 7 -3 8 5 4 6 -4 9 -11 6 -15 -2 -5 2 -17 10 -27 8 -10 15 -14 15 -8
0 5 -5 15 -10 20 -8 8 -6 15 5 24 8 7 15 9 15 4 0 -4 10 2 23 14 l22 21 0 -28
c0 -26 -2 -28 -28 -20 -16 5 -25 4 -22 -2 4 -5 13 -9 22 -9 10 0 13 -6 9 -16
-5 -14 -4 -15 9 -4 13 11 15 8 15 -18 0 -25 4 -30 20 -27 11 2 24 6 29 10 6 3
14 -3 20 -12 14 -25 14 -10 -1 23 -11 23 -10 28 7 40 10 8 14 14 8 14 -6 0
-10 7 -9 15 1 9 5 15 9 15 4 0 14 0 22 0 8 0 15 -7 15 -15 0 -8 5 -15 11 -15
6 0 8 7 5 16 -3 8 -2 12 4 9 6 -3 10 -1 10 5 0 6 5 8 11 4 8 -4 7 -9 -2 -15
-11 -8 -10 -12 5 -24 11 -8 15 -15 9 -15 -7 0 -15 4 -18 10 -8 12 -34 -11 -29
-25 2 -5 14 -10 27 -11 12 0 27 -2 34 -5 6 -2 10 -1 10 2 -4 15 27 39 44 34
11 -4 19 -2 19 4 0 15 27 14 36 -1 4 -6 3 -8 -4 -4 -6 3 -13 2 -16 -3 -3 -5 1
-11 9 -15 8 -3 15 -13 16 -23 0 -10 6 0 13 22 11 35 11 42 -5 60 -24 27 -22
86 2 92 11 3 16 9 13 15 -3 5 6 6 23 3 26 -6 27 -5 10 8 -12 10 -14 17 -8 22
6 3 11 3 11 -2 0 -4 4 -1 10 7 18 29 24 -20 6 -54 -10 -18 -11 -24 -3 -13 25
30 37 20 37 -34 0 -27 -4 -48 -8 -45 -5 3 -3 -30 4 -72 6 -42 11 -89 10 -104
-1 -15 1 -28 6 -28 4 0 4 -7 1 -17 -4 -11 -3 -14 6 -9 10 6 10 4 0 -12 -10
-17 -10 -23 0 -36 8 -9 9 -16 3 -16 -5 0 -8 -15 -6 -32 2 -18 3 -77 3 -130 0
-74 3 -98 13 -98 8 0 9 -3 3 -8 -14 -10 -16 -28 -5 -56 6 -16 6 -27 0 -31 -6
-4 -10 -14 -10 -23 0 -15 2 -15 11 -2 8 11 9 5 7 -27 -2 -23 0 -39 4 -37 4 3
5 -15 3 -38 -5 -49 2 -81 16 -73 5 4 9 -3 9 -14 0 -26 -4 -26 -26 -3 -17 16
-17 16 -10 -8 13 -45 13 -55 3 -78 -11 -25 -54 -28 -49 -3 2 8 -3 11 -13 8
-11 -5 -15 0 -15 19 0 16 -4 23 -11 18 -7 -4 -7 1 1 16 11 20 10 21 -12 9 -19
-10 -21 -10 -12 2 8 10 8 22 -1 44 -11 25 -13 27 -18 10 -3 -11 -3 -4 -1 15 4
29 -1 41 -30 73 -37 39 -56 47 -56 22 0 -9 -6 -12 -15 -9 -12 5 -10 -4 6 -41
14 -31 18 -56 14 -73 l-7 -27 -12 23 c-9 18 -14 20 -24 10 -10 -10 -15 -10
-22 2 -5 8 -10 20 -10 25 0 6 4 3 10 -5 5 -8 12 -12 15 -8 8 8 -41 41 -52 35
-10 -6 -34 19 -26 27 6 5 -11 10 -28 8 -4 -1 -35 9 -70 21 -67 24 -92 25 -174
10 -69 -13 -110 -42 -151 -103 -28 -43 -34 -61 -34 -105 0 -30 4 -65 10 -79 7
-21 6 -26 -5 -26 -18 0 -18 3 -4 -60 6 -27 15 -48 20 -44 5 3 9 -4 9 -15 0
-11 5 -23 11 -27 10 -6 8 10 -8 52 -2 7 0 15 6 19 6 3 11 24 11 45 0 33 5 42
28 54 19 10 33 11 43 5 11 -7 12 -11 1 -17 -14 -10 -42 -58 -42 -74 0 -5 10
-22 21 -38 l22 -29 -28 -32 c-22 -27 -26 -40 -22 -70 3 -24 0 -45 -10 -58 -8
-12 -11 -21 -6 -21 4 0 3 -4 -3 -8 -19 -13 -42 -98 -41 -151 2 -48 1 -51 -23
-51 -22 -1 -23 -2 -7 -11 10 -6 17 -22 17 -39 0 -16 6 -44 14 -62 8 -18 18
-46 22 -63 l8 -30 4 33 c2 18 8 30 13 27 14 -9 11 7 -5 19 -8 6 -16 34 -20 61
-5 42 -4 46 5 23 12 -31 24 -36 33 -13 3 8 1 15 -4 15 -6 0 -10 6 -10 14 0 8
-6 16 -12 19 -7 2 -5 3 4 2 10 -2 20 1 23 6 3 5 21 -5 40 -23 19 -17 32 -35
29 -39 -3 -5 1 -6 9 -3 8 3 25 -8 40 -25 31 -37 37 -38 67 -6 13 14 29 25 36
25 19 0 69 69 114 156 34 67 41 88 39 134 -1 55 3 78 23 114 8 15 7 18 -6 13
-8 -3 -18 -2 -21 3 -3 4 1 11 7 13 8 3 6 6 -4 6 -10 1 -22 10 -28 21 -8 15 -6
21 10 30 11 6 18 15 15 21 -4 5 4 9 15 9 19 0 21 4 16 28 -4 15 -14 32 -22 38
-22 17 -17 26 14 22 26 -3 27 -5 33 -78 4 -45 2 -80 -4 -88 -12 -15 8 -66 23
-57 6 3 7 -1 4 -9 -3 -9 -18 -17 -33 -17 -17 -1 -20 -3 -8 -6 9 -2 15 -9 12
-14 -4 -5 3 -9 14 -9 11 0 23 5 26 11 4 6 13 8 20 5 7 -2 18 1 24 7 9 9 11 7
6 -8 -6 -17 -3 -16 13 5 l20 24 13 -26 c6 -15 18 -29 25 -32 15 -6 17 3 15 69
-1 38 -1 39 14 21 15 -20 15 -20 15 0 0 10 4 15 8 9 15 -20 31 -14 37 15 6 26
30 50 49 50 3 0 6 -15 6 -32 l1 -33 15 25 c8 14 13 17 10 7 -3 -10 -6 -25 -6
-33 0 -9 -4 -13 -8 -10 -4 2 -8 -4 -9 -14 -1 -11 3 -23 9 -26 7 -5 9 -2 6 7
-3 8 1 20 8 27 17 15 17 12 4 -22 -7 -18 -14 -24 -26 -19 -13 5 -15 2 -9 -15
4 -15 2 -22 -6 -22 -7 0 -9 3 -6 7 4 3 -1 15 -10 26 -17 19 -17 20 0 14 21 -8
22 14 3 58 l-13 30 -8 -39 c-5 -23 -4 -46 2 -55 6 -9 7 -25 2 -36 -4 -11 -8
-14 -8 -6 -1 7 -7 11 -16 7 -8 -3 -15 0 -15 7 0 7 -5 4 -11 -6 -6 -10 -8 -25
-5 -33 3 -9 -1 -14 -13 -14 -28 0 -52 11 -45 21 7 13 -28 -1 -49 -19 -15 -14
-17 -13 -17 4 -1 18 -1 18 -11 1 -6 -10 -9 -19 -7 -20 1 -1 18 -10 36 -19 20
-11 30 -13 26 -5 -6 9 -5 9 7 0 12 -10 18 -10 27 -1 9 9 12 9 12 1 0 -7 -5
-15 -10 -18 -6 -4 9 -20 32 -37 24 -17 45 -35 46 -40 2 -4 12 -13 23 -19 15
-7 19 -7 17 3 -2 7 -7 17 -13 21 -6 5 -5 7 3 5 8 -2 13 -7 12 -12 -1 -4 7 -14
17 -23 10 -8 12 -11 4 -7 -11 5 -13 2 -8 -17 4 -13 7 -27 7 -31 0 -4 12 -6 28
-5 24 2 27 -2 30 -30 3 -30 11 -38 35 -34 5 1 6 -3 2 -8 -3 -6 -13 -7 -21 -4
-13 5 -15 -3 -12 -42 2 -40 7 -49 27 -56 20 -8 22 -7 17 8 -4 10 -4 14 0 11
12 -13 46 13 40 30 -5 13 -2 12 9 -3 15 -19 16 -50 2 -72 -4 -7 -1 -26 8 -44
20 -38 35 -127 23 -131 -5 -2 -10 -19 -11 -38 l-2 -35 348 -2 c375 -3 364 -4
336 49 -8 15 -8 19 0 14 12 -8 14 16 5 51 -4 14 -16 23 -33 26 -23 3 -22 4 7
6 l33 1 -2 144 c-2 122 -4 146 -18 151 -12 5 -13 8 -2 14 7 5 15 21 16 35 2
14 -1 24 -6 20 -5 -3 -7 -9 -4 -14 3 -5 1 -11 -4 -14 -5 -4 -8 6 -6 21 1 15 8
29 14 31 19 6 12 17 -12 17 -18 0 -23 -5 -20 -20 2 -11 -3 -6 -11 10 -12 25
-15 26 -16 10 -1 -11 -4 -14 -7 -7 -2 6 -14 12 -26 11 -12 0 -16 -3 -9 -6 6
-2 12 -9 12 -15 0 -6 -6 -8 -14 -5 -8 3 -20 -1 -26 -9 -10 -11 -9 -14 4 -14 9
0 16 -8 16 -18 0 -10 7 -19 15 -20 8 -1 22 -3 30 -4 17 -2 20 -14 5 -23 -5 -3
-10 -2 -10 2 0 5 -8 9 -19 10 -20 2 -24 -25 -6 -40 6 -5 4 -7 -5 -4 -8 2 -15
11 -15 20 0 23 -15 34 -24 18 -5 -8 -14 -10 -21 -6 -9 6 -5 12 14 22 14 7 26
19 26 26 0 8 -4 6 -10 -3 -8 -13 -10 -12 -10 3 0 10 -6 17 -12 16 -29 -3 -41
3 -18 10 18 5 26 15 28 34 3 21 9 27 28 27 16 0 23 4 18 11 -3 6 -15 8 -25 6
-19 -5 -19 0 -13 161 3 92 5 210 5 262 -1 56 4 115 13 142 17 58 14 113 -8
137 -11 12 -19 41 -21 82 l-4 62 62 61 c34 34 52 52 39 42 -17 -15 -25 -17
-34 -8 -9 9 -9 12 3 12 12 0 12 1 -1 9 -8 6 -18 7 -22 5 -4 -3 -8 -2 -8 1 0
10 43 69 52 73 4 2 8 12 8 22 0 10 12 28 27 40 l28 22 3 217 c4 242 2 250 -54
229 -26 -9 -34 -8 -52 8 -27 23 -28 40 -2 47 11 3 20 10 20 15 0 7 -34 11 -85
11 -48 0 -85 -4 -85 -9 0 -6 7 -10 15 -10 8 0 15 -5 15 -11 0 -11 -15 -5 -42
18 -16 14 -63 9 -54 -5 2 -4 0 -18 -5 -31 -7 -19 -12 -22 -21 -13 -9 9 -9 15
0 24 26 26 13 38 -37 35 -27 -1 -47 -5 -44 -10 2 -4 9 -5 14 -2 5 4 9 2 9 -3
0 -5 -18 -16 -39 -24 -27 -11 -39 -21 -38 -34 1 -11 -2 -18 -8 -17 -5 1 -11
-9 -11 -22 -1 -16 2 -22 12 -18 8 3 14 14 14 25 0 10 5 16 10 13 6 -3 10 0 10
7 1 14 33 -39 36 -59 1 -8 -8 -13 -21 -13 -13 0 -33 -11 -46 -24 -22 -23 -25
-24 -42 -8 -15 13 -17 13 -12 1 4 -10 0 -16 -9 -16 -21 0 -29 26 -11 33 21 9
18 24 -4 24 -11 0 -23 5 -27 12 -5 7 -1 9 13 6 15 -4 20 -1 19 11 -1 9 13 22
32 30 17 8 32 19 32 25 0 6 -5 5 -12 -2 -7 -7 -23 -12 -36 -12 -13 0 -21 -4
-18 -8 3 -5 -8 -18 -23 -30 l-28 -21 -1 47 c-1 25 3 49 9 52 19 12 -2 40 -30
39 -14 0 -20 -3 -13 -6 21 -8 14 -43 -9 -43 -17 0 -19 -3 -10 -13 6 -8 8 -17
4 -20 -3 -4 -1 -7 6 -7 8 0 11 7 7 15 -3 8 -1 15 4 15 6 0 10 -18 10 -41 l0
-41 -20 23 c-17 21 -19 21 -13 4 3 -11 3 -17 -1 -13 -9 8 -46 -22 -46 -38 0
-7 7 -14 15 -18 8 -3 14 -2 14 2 -4 23 3 41 17 46 12 4 14 1 9 -14 -4 -13 -2
-20 7 -20 9 -1 8 -5 -4 -13 -15 -12 -15 -14 4 -26 11 -7 17 -8 14 -2 -4 5 -1
13 5 16 6 4 13 -2 16 -15 4 -17 8 -19 15 -8 8 10 11 10 15 0 2 -6 9 -10 14 -6
13 7 49 14 49 8 0 -3 -10 -8 -22 -13 -13 -5 -23 -17 -23 -27 0 -10 -6 -19 -14
-19 -8 0 -24 -15 -34 -33 -19 -32 -19 -33 -1 -47 18 -14 18 -14 1 -15 -11 0
-21 9 -24 19 -3 11 -11 22 -19 25 -16 6 -19 36 -4 36 6 0 10 -7 10 -15 0 -21
26 -8 39 21 16 36 14 46 -8 32 -11 -7 -17 -16 -14 -22 4 -5 1 -6 -6 -2 -18 11
-63 -2 -55 -16 5 -7 2 -9 -8 -5 -9 3 -15 0 -14 -6 0 -7 -3 -13 -9 -14 -5 -1
-9 6 -7 15 2 15 1 15 -8 -1 -9 -13 -15 -15 -30 -7 -16 9 -18 8 -13 -6 5 -14 3
-15 -15 -5 -12 7 -22 16 -22 22 0 6 -4 7 -10 4 -8 -5 -15 31 -11 58 0 4 -3 7
-8 7 -5 0 -6 14 -2 32 4 18 4 57 0 87 -3 31 -2 64 3 74 5 9 6 22 3 27 -10 16
-224 13 -240 -4 -12 -12 -12 -15 1 -20 9 -3 20 -3 26 0 6 4 8 -1 3 -15 -4 -13
-2 -21 5 -21 6 0 10 -8 8 -17 -1 -10 1 -24 6 -31 5 -8 2 -20 -8 -31 -9 -10
-16 -23 -16 -29 0 -18 -25 -14 -43 6 -20 22 -23 46 -5 36 7 -4 10 -3 5 1 -4 5
-18 10 -30 12 -12 2 -28 11 -34 20 -15 20 -17 37 -3 28 6 -3 15 -3 21 1 18 11
-8 21 -41 16 -19 -3 -30 -10 -31 -21 0 -9 -5 -1 -11 18 -11 41 2 62 27 41 13
-11 18 -11 31 2 13 13 7 15 -51 15 -66 1 -77 -5 -50 -27 16 -14 10 -34 -7 -24
-7 5 -9 0 -6 -14 4 -12 2 -25 -3 -28 -5 -3 -9 18 -9 46 l0 51 -120 -2 c-97 -2
-120 -5 -122 -18 -3 -12 -5 -12 -20 2 -9 9 -24 17 -33 17 -15 0 -15 -1 1 -17
11 -12 13 -18 5 -21 -20 -7 -82 8 -76 19 8 11 10 11 -102 14 -82 2 -92 1 -96
-16 -3 -11 -11 -19 -19 -19 -10 0 -10 2 0 8 9 6 5 12 -13 20 -34 16 -58 15
-52 0 2 -7 15 -12 28 -10 14 2 19 -1 13 -5 -20 -15 -23 -52 -6 -63 14 -8 14
-10 2 -11 -8 0 -1 -7 15 -14 17 -8 24 -14 18 -15 -7 0 -15 1 -17 3 -2 1 -14
-7 -27 -18 l-24 -20 18 22 c12 14 15 23 7 28 -5 3 -8 10 -5 15 3 4 -2 14 -11
21 -9 7 -19 22 -23 32 -7 18 -8 18 -22 1 -7 -10 -9 -15 -2 -11 6 4 14 3 18 -3
10 -16 -21 -12 -35 5 -7 8 -16 12 -21 9 -5 -3 -9 0 -9 7 0 7 -3 9 -6 6 -4 -3
-15 -2 -26 4 -30 16 -58 22 -120 24 -55 2 -57 1 -56 -21z m479 6 c6 0 7 -5 4
-11 -4 -6 -13 -8 -21 -5 -11 4 -10 -1 3 -21 14 -21 14 -25 3 -21 -8 3 -14 11
-12 17 1 6 -2 11 -7 11 -6 0 -9 9 -8 20 1 13 6 19 15 15 7 -3 18 -5 23 -5z
m509 0 c0 -5 -5 -10 -11 -10 -5 0 -7 5 -4 10 3 6 8 10 11 10 2 0 4 -4 4 -10z
m320 -5 c0 -8 5 -15 10 -15 6 0 10 -7 10 -15 0 -17 -16 -20 -25 -5 -11 18 -14
50 -4 50 5 0 9 -7 9 -15z m-906 -4 c3 -5 -1 -11 -9 -14 -9 -4 -12 -1 -8 9 6
16 10 17 17 5z m153 -13 c4 -7 8 -22 8 -33 0 -11 6 -19 13 -17 19 3 14 -12 -9
-26 -12 -8 -18 -9 -15 -4 3 5 -1 15 -9 22 -12 10 -15 9 -15 -3 0 -10 -6 -14
-15 -11 -8 4 -15 14 -15 23 0 9 -5 22 -11 28 -22 22 9 22 37 1 15 -13 24 -16
19 -8 -13 20 -15 40 -5 40 5 0 12 -6 17 -12z m690 -10 c-3 -8 -6 -5 -6 6 -1
11 2 17 5 13 3 -3 4 -12 1 -19z m611 -4 c2 -27 -13 -64 -27 -64 -5 0 -12 11
-15 25 -4 17 -14 25 -29 26 -17 0 -13 5 18 19 52 24 50 24 53 -6z m-1219 -4
c10 -5 10 -9 2 -14 -6 -4 -11 -2 -11 3 0 6 -4 11 -10 11 -5 0 -10 -7 -10 -16
0 -13 -3 -14 -14 -5 -11 9 -15 9 -19 -1 -2 -7 -4 -1 -3 14 1 24 4 26 26 21 14
-3 31 -9 39 -13z m211 11 c0 -5 -6 -11 -12 -13 -7 -3 10 -10 37 -18 29 -8 43
-15 33 -17 -13 -3 -18 -14 -18 -38 0 -29 -3 -32 -21 -28 -12 4 -18 11 -15 20
3 8 1 11 -4 8 -6 -3 -10 -13 -10 -21 0 -17 -9 -18 -45 -4 -14 5 -24 14 -20 19
3 5 1 12 -5 16 -16 10 -12 65 5 65 8 0 15 -4 15 -10 0 -5 -5 -10 -12 -10 -6 0
-9 -2 -7 -5 8 -7 49 7 49 17 0 5 -6 6 -12 3 -7 -4 -4 1 6 9 22 18 36 20 36 7z
m-635 -13 c5 4 5 1 0 -7 -4 -8 -2 -16 5 -21 8 -5 9 -10 2 -14 -6 -3 -14 3 -17
14 -5 17 -9 19 -21 9 -12 -10 -17 -10 -27 0 -9 10 -8 11 7 5 16 -6 18 -4 13 9
-5 14 -3 16 12 8 10 -6 22 -7 26 -3z m1916 -19 c9 -17 7 -18 -15 -8 -31 15
-43 39 -15 32 11 -3 24 -14 30 -24z m-2041 17 c0 -3 -4 -8 -10 -11 -5 -3 -10
-1 -10 4 0 6 5 11 10 11 6 0 10 -2 10 -4z m1916 -35 c-3 -20 -3 -30 0 -23 8
17 25 15 18 -2 -3 -8 3 -16 15 -19 17 -4 18 -1 12 17 -16 43 15 61 55 31 14
-11 15 -14 4 -15 -13 0 -13 -2 -1 -9 8 -5 11 -16 8 -25 -4 -9 -2 -16 2 -16 5
0 12 6 14 13 4 9 6 9 6 0 1 -7 -13 -20 -30 -28 -17 -9 -28 -19 -25 -22 3 -3
12 0 21 7 10 8 15 9 15 1 0 -12 -2 -13 -45 -15 -16 -1 -36 3 -42 10 -7 7 -18
14 -24 16 -6 2 -12 24 -13 49 -1 24 -5 49 -9 55 -3 6 1 11 9 11 12 0 14 -8 10
-36z m-1266 14 c7 -9 8 -15 2 -15 -5 0 -12 7 -16 15 -3 8 -4 15 -2 15 2 0 9
-7 16 -15z m1211 -6 c-21 -22 -51 -20 -51 3 0 9 3 8 10 -2 8 -13 14 -8 12 10
0 3 10 7 24 8 l25 2 -20 -21z m-1826 -7 c-3 -7 0 -10 6 -7 10 7 49 -30 49 -45
0 -5 -7 -10 -15 -14 -8 -3 -15 -1 -15 4 0 5 -9 11 -20 15 -11 3 -19 9 -19 13
3 21 -3 32 -17 32 -8 0 -13 4 -10 8 8 14 47 9 41 -6z m311 -4 c-4 12 -5 22 -2
22 16 0 36 -14 36 -25 0 -8 5 -17 12 -21 7 -4 8 -3 4 4 -4 8 -2 10 7 6 8 -3
17 -14 20 -25 4 -17 2 -19 -16 -13 -12 4 -35 7 -50 7 -20 1 -34 10 -50 31 -18
27 -19 29 -2 16 17 -14 18 -13 12 5 -6 16 -3 16 14 -5 21 -24 21 -24 15 -2z
m264 -13 c0 -8 -4 -15 -10 -15 -5 0 -7 7 -4 15 4 8 8 15 10 15 2 0 4 -7 4 -15z
m360 7 c0 -5 -7 -9 -15 -9 -8 0 -12 4 -9 9 3 4 9 8 15 8 5 0 9 -4 9 -8z m1120
-6 c0 -7 -7 -19 -15 -26 -10 -9 -15 -9 -15 -1 0 6 6 11 13 12 9 0 9 2 -1 6 -6
2 -10 9 -6 14 8 14 24 11 24 -5z m60 4 c0 -5 -2 -10 -4 -10 -3 0 -8 5 -11 10
-3 6 -1 10 4 10 6 0 11 -4 11 -10z m-1957 -30 c-3 -10 -13 -20 -24 -23 -23 -6
-25 6 -4 23 8 7 12 16 9 21 -3 5 1 6 9 3 9 -3 13 -13 10 -24z m637 20 c0 -5
-2 -10 -4 -10 -3 0 -8 5 -11 10 -3 6 -1 10 4 10 6 0 11 -4 11 -10z m100 0 c0
-5 -5 -10 -11 -10 -5 0 -7 5 -4 10 3 6 8 10 11 10 2 0 4 -4 4 -10z m-805 -10
c3 -5 1 -10 -4 -10 -6 0 -11 5 -11 10 0 6 2 10 4 10 3 0 8 -4 11 -10z m-150
-10 c3 -5 1 -10 -4 -10 -6 0 -11 5 -11 10 0 6 2 10 4 10 3 0 8 -4 11 -10z
m520 0 c-3 -5 -12 -10 -18 -10 -7 0 -6 4 3 10 19 12 23 12 15 0z m105 -5 c0
-2 -6 -5 -13 -8 -8 -3 -14 1 -14 8 0 7 6 11 14 8 7 -3 13 -6 13 -8z m-285 -6
c11 -17 -1 -21 -15 -4 -8 9 -8 15 -2 15 6 0 14 -5 17 -11z m344 -3 c10 -11 7
-14 -14 -12 -25 1 -31 7 -18 19 10 11 19 8 32 -7z m-215 -21 c-22 -17 -40 -19
-48 -6 -4 5 2 7 13 4 10 -3 22 0 25 6 4 6 12 11 19 11 6 0 2 -7 -9 -15z m533
-7 c-3 -8 -6 -5 -6 6 -1 11 2 17 5 13 3 -3 4 -12 1 -19z m129 -26 c-11 -10
-15 4 -8 28 l7 25 3 -23 c2 -13 1 -26 -2 -30z m-737 28 c4 0 8 -6 8 -14 0 -9
-10 -14 -27 -14 -15 1 -32 -2 -39 -6 -6 -4 -11 -2 -11 3 0 6 7 11 15 11 8 0
14 3 14 8 -3 18 2 24 17 18 9 -3 19 -6 23 -6z m734 -45 c15 -10 15 -14 3 -18
-8 -3 -17 -3 -20 1 -13 12 -38 10 -33 -3 4 -8 -3 -12 -18 -12 -20 0 -22 2 -11
13 8 7 11 24 8 41 l-5 27 29 -18 c16 -11 37 -25 47 -31z m617 30 c0 -2 -3 -10
-6 -19 -8 -21 -21 -20 -26 2 -4 12 1 18 13 19 11 1 19 0 19 -2z m217 -29 c-4
-9 -11 -16 -18 -16 -6 0 -8 7 -5 16 3 9 6 21 6 27 0 8 3 8 11 0 7 -7 9 -19 6
-27z m-257 -16 c0 -13 -35 -21 -54 -14 -15 6 -14 8 6 19 24 12 48 9 48 -5z
m-1274 -35 c-23 -34 -96 -28 -96 8 0 6 3 8 6 4 3 -3 22 3 41 13 27 15 38 16
48 7 11 -10 11 -16 1 -32z m1316 10 c12 -16 9 -25 -7 -25 -8 0 -15 2 -15 4 0
2 -3 12 -6 21 -7 17 15 18 28 0z m378 11 c0 -3 -4 -8 -10 -11 -5 -3 -10 -1
-10 4 0 6 5 11 10 11 6 0 10 -2 10 -4z m-1226 -42 c-3 -35 -14 -44 -14 -12 0
21 7 38 15 38 1 0 1 -12 -1 -26z m786 14 c0 -9 4 -8 10 2 8 13 10 12 10 -2 0
-11 -8 -18 -20 -18 -11 0 -20 7 -20 15 0 8 5 15 10 15 6 0 10 -6 10 -12z m-43
-18 c8 -12 9 -21 3 -25 -11 -7 -40 18 -40 34 0 18 24 12 37 -9z m103 -4 c0 -3
-4 -8 -10 -11 -5 -3 -10 -1 -10 4 0 6 5 11 10 11 6 0 10 -2 10 -4z m-251 -58
c-20 -38 -45 -14 -29 28 10 26 11 26 24 8 10 -13 11 -24 5 -36z m-148 19 c-10
-9 -11 -8 -5 6 3 10 9 15 12 12 3 -3 0 -11 -7 -18z m416 -10 c1 -25 0 -27 -6
-12 l-8 20 -5 -20 c-6 -20 -6 -20 -7 1 -1 15 15 44 24 44 0 0 1 -15 2 -33z
m403 18 c0 -8 -2 -15 -4 -15 -2 0 -6 7 -10 15 -3 8 -1 15 4 15 6 0 10 -7 10
-15z m-450 -10 c0 -8 -2 -15 -4 -15 -2 0 -6 7 -10 15 -3 8 -1 15 4 15 6 0 10
-7 10 -15z m-320 -9 c0 -3 -4 -8 -10 -11 -5 -3 -10 -1 -10 4 0 6 5 11 10 11 6
0 10 -2 10 -4z m139 -25 c9 -16 8 -18 -8 -14 -12 3 -17 11 -14 19 7 18 10 18
22 -5z m-163 -26 c3 -14 10 -25 15 -25 5 0 9 -7 9 -16 0 -13 3 -14 13 -5 8 6
18 7 22 3 5 -4 5 1 2 11 -4 11 -3 16 3 12 6 -3 10 -1 10 5 0 7 7 9 16 6 11 -4
15 -2 11 7 -4 10 3 12 24 9 40 -6 45 -18 11 -25 -17 -4 -29 -12 -29 -22 0 -9
6 -14 13 -11 8 3 11 0 7 -10 -3 -8 1 -14 10 -14 8 0 17 -6 20 -12 2 -7 8 -9
13 -5 5 5 1 15 -10 23 -20 14 -20 14 0 14 10 0 34 -17 52 -37 18 -21 31 -32
27 -25 -3 6 -2 12 3 12 5 0 22 11 38 25 15 13 31 22 34 18 3 -3 -1 -8 -7 -10
-19 -7 -16 -31 7 -45 15 -10 18 -21 16 -53 -2 -22 -2 -32 1 -22 2 9 9 17 14
17 10 0 12 -12 9 -50 -2 -25 -1 -25 15 -5 9 11 14 14 10 8 -4 -8 0 -13 10 -13
11 0 15 -5 11 -16 -3 -8 -2 -13 3 -10 8 6 33 -17 28 -25 -1 -2 7 5 17 15 20
19 20 19 29 -8 5 -15 6 -38 3 -52 -5 -20 -11 -23 -34 -18 -15 3 -48 16 -74 28
-26 12 -45 19 -42 14 3 -4 -2 -8 -11 -8 -9 0 -13 -5 -10 -10 4 -6 11 -8 16 -5
5 4 9 -1 9 -9 0 -10 9 -16 23 -17 16 -1 17 -3 5 -6 -14 -3 -15 -7 -6 -17 15
-16 38 2 31 24 -2 8 2 4 11 -10 14 -23 15 -24 22 -6 7 18 8 18 15 -2 8 -20 23
-23 46 -9 25 16 80 -37 77 -73 -1 -8 -2 -29 -3 -46 0 -16 -10 -40 -22 -52 -21
-23 -21 -69 -1 -95 17 -21 24 -105 16 -198 -4 -50 -9 -86 -13 -81 -5 8 -33 13
-148 27 -17 2 -23 -2 -23 -16 0 -12 5 -16 15 -13 8 4 15 1 15 -6 0 -9 11 -11
34 -7 19 3 36 2 38 -2 5 -13 48 -24 48 -12 0 6 7 11 15 11 31 0 14 -19 -22
-25 -97 -15 -108 -16 -93 -6 9 7 10 11 3 11 -6 0 -18 -9 -26 -20 -12 -18 -15
-18 -20 -5 -4 8 -12 15 -19 14 -10 0 -10 -2 0 -6 6 -2 12 -11 12 -19 0 -12 15
-14 81 -12 67 3 84 7 96 23 15 19 15 19 9 -8 -5 -22 -4 -27 6 -21 10 6 11 5 1
-8 -7 -8 -11 -17 -9 -19 9 -8 13 -118 4 -113 -11 7 -5 -39 6 -48 6 -4 4 -13
-4 -23 -12 -14 -12 -18 1 -26 11 -7 12 -11 1 -18 -8 -4 -13 -12 -12 -17 4 -18
21 -44 28 -43 18 3 30 -2 35 -15 4 -10 1 -13 -7 -10 -8 3 -17 1 -21 -5 -3 -6
-15 -11 -26 -11 -11 0 -17 -4 -14 -10 7 -12 3 -12 -20 -4 -13 5 -14 8 -3 15
10 7 9 9 -5 9 -10 0 -16 4 -12 9 9 16 -16 25 -27 10 -8 -11 -9 -11 -5 2 3 9 1
22 -3 30 -8 11 -15 12 -41 2 l-32 -12 29 32 c16 17 22 26 14 19 -17 -14 -44
-16 -35 -2 3 5 -6 12 -20 16 -31 8 -33 29 -2 39 21 7 21 7 2 12 -11 3 -23 10
-27 17 -5 8 -8 7 -8 -3 0 -8 -8 -4 -20 10 -14 17 -19 20 -20 9 0 -9 -3 -11 -8
-5 -4 6 -17 18 -29 29 -20 16 -25 17 -40 5 -9 -8 -14 -9 -10 -3 4 7 0 15 -9
18 -8 3 -12 10 -9 16 10 15 -11 12 -24 -4 -9 -11 -10 -20 -1 -35 8 -16 8 -21
-1 -21 -8 0 -7 -5 2 -17 12 -16 12 -17 -2 -6 -9 7 -18 11 -21 8 -2 -3 -5 2 -5
10 0 8 5 11 10 8 6 -4 8 3 4 18 -4 13 -7 31 -7 39 0 13 -2 13 -9 1 -6 -9 -15
-11 -27 -6 -25 11 -30 12 -56 14 -18 1 -20 3 -9 10 12 8 12 13 3 24 -10 12 -8
18 12 31 14 9 30 16 36 16 6 0 8 5 5 10 -3 6 1 17 9 26 19 18 21 38 4 28 -9
-5 -10 -4 -3 4 6 6 24 12 40 14 20 2 29 8 27 17 -2 11 0 12 11 3 8 -7 22 -10
31 -6 17 7 22 -11 6 -21 -22 -14 -8 -23 21 -13 17 6 50 8 75 5 24 -2 44 -1 44
4 0 5 -6 8 -12 6 -8 -1 -13 10 -13 30 l0 32 -45 -5 c-25 -3 -51 -7 -57 -10 -7
-2 -13 1 -13 6 0 6 -7 10 -16 10 -8 0 -13 -4 -10 -9 3 -4 -6 -6 -19 -3 -31 5
-32 16 -4 36 l21 14 -23 12 c-19 11 -25 10 -40 -8 -28 -35 -31 -11 -2 26 25
33 25 35 8 48 -10 8 -28 14 -38 14 -17 0 -19 -5 -13 -42 l6 -43 -14 30 -14 30
-2 -40 c-1 -22 -4 -33 -7 -25 -8 20 -33 44 -33 32 0 -6 -3 -19 -6 -29 -4 -14
-4 -15 4 -4 8 10 11 6 17 -18 3 -17 13 -31 21 -31 16 0 16 -2 8 -24 -3 -9 -14
-16 -23 -16 -14 0 -14 2 -1 11 11 8 12 12 3 16 -7 2 -13 13 -13 24 0 11 -5 16
-14 13 -21 -8 -29 140 -10 178 8 16 12 33 9 37 -3 5 0 11 6 13 18 6 0 48 -20
48 -15 0 -19 18 -29 158 -7 86 -12 181 -12 210 0 53 0 54 28 48 15 -2 44 -7
65 -11 21 -3 35 -10 32 -16 -4 -5 5 -9 19 -9 14 0 35 -10 47 -22 12 -13 18
-16 14 -8 -5 8 3 5 17 -8 26 -24 46 -16 34 13 -4 11 1 12 25 3 32 -11 35 -17
17 -38 -11 -12 -10 -12 5 -1 15 12 17 11 17 -4 0 -17 1 -17 20 0 16 14 17 20
8 27 -10 6 -10 8 0 8 6 0 12 5 12 12 0 6 -3 9 -6 5 -11 -10 -59 20 -92 57 -16
19 -33 32 -36 28 -4 -3 -18 5 -31 18 -54 55 -68 61 -83 34 -6 -11 -11 -13 -16
-5 -4 6 -2 11 4 11 6 0 8 5 4 12 -4 6 -3 8 3 5 6 -4 13 2 16 13 3 11 1 23 -4
26 -5 3 -9 -2 -9 -12 0 -11 -6 -15 -20 -11 -20 5 -24 -2 -20 -38 2 -17 0 -18
-16 -5 -14 12 -16 12 -10 1 6 -9 5 -12 -5 -9 -8 3 -12 12 -11 19 2 8 0 11 -4
6 -14 -13 -15 -50 -2 -59 10 -5 8 -8 -4 -8 -13 0 -18 8 -18 25 0 14 -6 25 -12
26 -8 0 -9 2 -2 5 7 3 9 25 7 59 -3 45 -1 55 11 55 9 0 18 -11 22 -25z m41 3
c-3 -8 -6 -5 -6 6 -1 11 2 17 5 13 3 -3 4 -12 1 -19z m753 5 c-1 -18 -18 -35
-24 -24 -4 6 -4 16 -1 21 7 12 25 13 25 3z m-561 -29 c15 13 20 14 35 3 17
-13 17 -16 3 -44 -22 -42 -42 -47 -62 -17 -9 13 -13 29 -10 33 3 5 0 11 -7 13
-7 3 -8 10 -3 17 6 11 10 10 17 -3 9 -16 11 -16 27 -2z m267 -14 c-2 -17 -1
-28 4 -25 4 3 10 -2 14 -10 3 -8 0 -15 -7 -15 -7 -1 -5 -6 6 -14 20 -15 23
-46 5 -46 -9 0 -8 -3 2 -10 8 -5 15 -13 16 -17 0 -4 6 -26 12 -48 15 -51 16
-87 2 -65 -8 13 -10 13 -10 -2 0 -9 4 -19 9 -22 5 -3 14 -20 20 -37 9 -27 9
-30 -4 -19 -8 7 -15 18 -15 24 0 6 -12 25 -26 41 -26 30 -26 30 -10 2 9 -15
14 -33 10 -39 -4 -6 -3 -8 3 -5 11 7 51 -59 41 -68 -9 -9 -89 66 -82 77 15 24
10 92 -8 110 -15 15 -17 23 -8 33 8 10 8 19 1 34 -16 29 -14 104 2 95 9 -6 9
-4 -1 8 -10 13 -10 19 3 32 23 23 27 20 21 -14z m285 -27 c13 -16 12 -17 -3
-4 -10 7 -18 15 -18 17 0 8 8 3 21 -13z m-193 -175 c4 -72 -3 -72 -22 0 -10
35 -11 53 -3 61 17 17 22 6 25 -61z m62 47 c0 -8 -4 -15 -10 -15 -5 0 -10 7
-10 15 0 8 5 15 10 15 6 0 10 -7 10 -15z m60 -31 c0 -21 -25 -35 -38 -22 -9 9
-12 9 -12 1 0 -7 5 -15 10 -18 6 -4 8 -11 4 -16 -4 -6 -11 -6 -20 2 -19 15 0
51 22 42 15 -5 15 -3 -1 20 l-17 26 26 -12 c14 -7 26 -17 26 -23z m-79 -49
c-9 -30 -9 -30 -10 10 -1 25 2 36 9 29 6 -6 6 -21 1 -39z m19 -57 c-1 -7 -7
-24 -15 -38 -15 -26 -19 -12 -9 28 7 23 24 31 24 10z m19 -15 c-13 -17 -12
-17 6 -2 24 19 45 32 45 27 0 -2 -18 -21 -40 -43 l-40 -39 9 32 c11 38 21 55
28 48 3 -3 0 -14 -8 -23z m-931 -418 c0 -16 -2 -15 -8 5 -11 34 -11 60 0 35 5
-11 8 -29 8 -40z m20 -85 c0 -9 -3 -7 -8 5 -5 11 -8 29 -8 40 0 16 2 15 8 -5
4 -14 8 -32 8 -40z m157 0 c3 -5 2 -10 -4 -10 -5 0 -18 -3 -28 -7 -16 -6 -16
-5 -4 10 15 19 27 22 36 7z m43 -15 c-4 -17 -1 -25 8 -25 26 0 14 -38 -18 -58
-18 -12 -34 -19 -36 -17 -5 4 41 125 47 125 2 0 1 -11 -1 -25z m312 -59 c0 -3
-4 -8 -10 -11 -5 -3 -10 -1 -10 4 0 6 5 11 10 11 6 0 10 -2 10 -4z m160 -6 c0
-5 -7 -10 -16 -10 -8 0 -12 5 -9 10 3 6 10 10 16 10 5 0 9 -4 9 -10z m-293 -6
c-3 -3 -12 -4 -19 -1 -8 3 -5 6 6 6 11 1 17 -2 13 -5z m-656 -71 c7 -13 9 -26
6 -30 -10 -10 -59 16 -52 27 4 6 11 7 17 4 7 -4 8 -2 4 5 -4 6 -11 9 -16 6 -5
-3 -8 8 -7 25 l2 30 17 -23 c9 -12 23 -32 29 -44z m414 55 c5 4 5 1 1 -6 -4
-7 -11 -10 -16 -7 -5 3 -11 -4 -15 -15 -10 -33 -75 -62 -75 -34 0 9 5 12 10 9
6 -3 10 -2 10 3 0 5 9 21 21 36 16 20 24 24 38 16 10 -5 22 -6 26 -2z m135
-17 c0 -6 -4 -12 -8 -15 -5 -3 -9 1 -9 9 0 8 4 15 9 15 4 0 8 -4 8 -9z m-630
-50 c-11 -22 -40 -29 -40 -10 0 5 5 7 11 3 9 -5 10 1 5 20 -4 17 -3 25 3 22 5
-4 13 -1 18 6 13 21 16 -18 3 -41z m1055 19 c3 -5 1 -10 -4 -10 -6 0 -11 5
-11 10 0 6 2 10 4 10 3 0 8 -4 11 -10z m-380 -21 c-10 -15 -25 -10 -19 6 4 8
10 12 15 9 5 -3 7 -10 4 -15z m-287 -54 c-3 -3 -9 2 -12 12 -6 14 -5 15 5 6 7
-7 10 -15 7 -18z m307 -61 l30 -14 -32 5 c-18 2 -33 0 -33 -5 0 -6 -6 -10 -13
-10 -7 0 -13 9 -13 20 0 24 19 25 61 4z m-179 -30 c-3 -8 -1 -24 4 -35 7 -13
7 -19 0 -19 -5 0 -10 6 -10 13 0 8 -4 7 -10 -3 -5 -8 -10 -12 -10 -8 0 3 -3
14 -7 24 -5 13 -3 15 8 9 8 -4 11 -5 7 -1 -4 5 -1 14 5 22 16 18 20 17 13 -2z
m34 6 c0 -5 -2 -10 -4 -10 -3 0 -8 5 -11 10 -3 6 -1 10 4 10 6 0 11 -4 11 -10z
m30 6 c0 -3 -4 -8 -10 -11 -5 -3 -10 -1 -10 4 0 6 5 11 10 11 6 0 10 -2 10 -4z
m-100 -16 c0 -5 -4 -10 -10 -10 -5 0 -10 5 -10 10 0 6 5 10 10 10 6 0 10 -4
10 -10z m383 -11 c5 -3 2 -9 -7 -12 -12 -5 -16 0 -16 15 0 12 3 17 8 12 4 -5
11 -12 15 -15z m-235 4 c-10 -2 -18 -12 -19 -21 0 -14 -2 -13 -9 3 -5 12 -9
14 -9 6 -1 -8 -4 -12 -7 -8 -11 11 4 23 33 24 15 0 20 -1 11 -4z m89 -6 c6 0
9 -6 6 -13 -4 -11 -8 -10 -20 1 -8 9 -19 13 -24 10 -5 -4 -9 -1 -9 5 0 8 7 9
18 5 9 -4 22 -8 29 -8z m113 9 c0 -3 -4 -8 -10 -11 -5 -3 -10 -1 -10 4 0 6 5
11 10 11 6 0 10 -2 10 -4z m-360 -26 c0 -5 -2 -10 -4 -10 -3 0 -8 5 -11 10 -3
6 -1 10 4 10 6 0 11 -4 11 -10z m81 -29 c-12 -21 -5 -51 11 -51 5 0 12 9 15
21 4 15 8 17 14 8 11 -18 -28 -46 -44 -30 -18 18 -31 13 -16 -6 12 -15 12 -16
-1 -8 -8 6 -19 10 -24 10 -5 0 -11 7 -13 15 -4 12 -2 12 5 2 7 -10 11 -10 22
3 7 8 9 15 6 15 -4 0 0 7 8 16 9 8 16 23 17 32 0 10 3 12 5 5 3 -7 1 -21 -5
-32z m-91 -5 c0 -10 -34 2 -38 13 -3 10 0 10 17 2 11 -7 21 -13 21 -15z m308
6 c12 10 14 10 8 1 -4 -7 -15 -17 -26 -23 -15 -8 -17 -7 -12 12 3 13 7 17 10
10 3 -10 7 -10 20 0z m49 2 c-3 -3 -12 -4 -19 -1 -8 3 -5 6 6 6 11 1 17 -2 13
-5z m116 -14 c10 -10 6 -11 -16 -8 -15 3 -30 1 -33 -3 -3 -5 -13 -2 -22 8 -16
15 -17 15 -20 0 -2 -9 -9 -17 -16 -17 -18 0 -35 -21 -29 -36 7 -20 31 -17 36
4 3 11 5 7 6 -10 0 -14 7 -28 14 -31 6 -3 2 -4 -10 -4 -13 1 -23 4 -23 8 0 4
-10 5 -22 2 -19 -4 -20 -3 -8 6 10 7 11 11 3 11 -7 0 -12 5 -10 12 1 6 -9 15
-23 19 -24 7 -24 7 6 8 19 1 39 11 54 26 18 19 31 24 62 21 22 -2 45 -9 51
-16z m-433 0 c0 -5 -4 -10 -9 -10 -6 0 -13 5 -16 10 -3 6 1 10 9 10 9 0 16 -4
16 -10z m403 -48 c-18 -5 -27 3 -18 17 4 7 10 7 20 -2 11 -10 11 -13 -2 -15z
m-36 3 c0 -8 -4 -12 -9 -9 -5 3 -6 10 -3 15 9 13 12 11 12 -6z m102 -32 c9 -6
13 -15 8 -19 -4 -4 1 -17 10 -28 18 -21 18 -21 -4 -3 -12 11 -28 16 -35 12 -7
-3 -5 0 5 8 9 8 17 17 17 19 0 10 -40 16 -46 7 -9 -15 -24 -10 -24 9 0 13 2
14 9 3 7 -11 12 -9 22 10 9 18 14 20 17 9 3 -8 12 -20 21 -27z m389 -23 c14 0
14 -2 3 -9 -11 -7 -11 -9 0 -14 8 -3 1 -3 -16 -2 -16 2 -33 4 -37 4 -4 1 -5 8
-1 17 3 8 12 13 20 10 8 -3 22 -6 31 -6z m-638 -4 c0 -2 -7 -7 -16 -10 -8 -3
-12 -2 -9 4 6 10 25 14 25 6z m100 -15 c0 -4 -6 -8 -14 -8 -8 0 -12 6 -9 14 5
13 23 9 23 -6z m198 -6 c-3 -3 -9 2 -12 12 -6 14 -5 15 5 6 7 -7 10 -15 7 -18z
m-435 0 c-3 -9 -8 -14 -10 -11 -3 3 -2 9 2 15 9 16 15 13 8 -4z m214 -21 c9 4
13 1 10 -6 -2 -7 -10 -12 -16 -10 -6 1 -11 -4 -12 -10 0 -7 -4 -4 -8 7 -4 11
-5 29 -2 40 5 19 6 18 9 -3 2 -16 8 -22 19 -18z m60 30 c-3 -3 -12 -4 -19 -1
-8 3 -5 6 6 6 11 1 17 -2 13 -5z m211 -25 c14 0 13 -2 -3 -9 -11 -5 -14 -9 -7
-9 6 -1 12 -5 12 -11 0 -5 -7 -6 -17 -3 -9 4 -14 2 -10 -3 3 -5 -3 -10 -14
-10 -18 0 -18 2 -5 12 9 6 16 17 16 25 0 11 -2 11 -10 -1 -5 -8 -10 -10 -10
-4 0 15 24 37 28 24 2 -5 11 -10 20 -11z m154 -9 c-17 -21 -27 -27 -18 -11 4
5 0 12 -6 14 -8 3 -6 6 5 6 9 1 17 6 17 12 0 5 4 8 10 4 5 -3 2 -14 -8 -25z
m-1425 14 c-3 -3 -12 -4 -19 -1 -8 3 -5 6 6 6 11 1 17 -2 13 -5z m1379 -36
c-9 -5 -14 -14 -11 -19 4 -5 11 -7 16 -4 5 4 9 1 9 -5 0 -6 -8 -9 -18 -6 -12
4 -19 1 -19 -7 0 -13 35 -16 55 -3 7 4 12 2 12 -3 0 -6 -5 -11 -11 -11 -5 0
-8 -4 -4 -9 3 -6 -6 -8 -22 -5 -36 7 -45 13 -37 26 5 8 1 9 -12 5 -18 -7 -18
-6 1 9 20 15 20 16 0 12 -10 -2 -23 -14 -27 -28 -7 -22 -7 -21 -5 7 2 18 -1
35 -7 38 -6 2 6 3 27 1 26 -3 37 0 37 10 0 8 6 11 16 7 15 -5 15 -7 0 -15z
m-176 -7 c0 -5 -10 -11 -22 -14 -22 -6 -22 -6 -4 8 23 17 26 18 26 6z m20 -41
c0 -5 -4 -12 -10 -15 -5 -3 -10 -4 -10 -1 0 2 -3 12 -6 20 -5 12 -2 15 10 10
9 -3 16 -10 16 -14z m-323 2 c7 -4 9 -13 5 -20 -6 -8 -13 -6 -25 8 -17 20 -5
28 20 12z m561 -8 c6 3 14 1 18 -5 4 -8 3 -9 -4 -5 -7 4 -12 2 -12 -5 0 -7 -5
-8 -13 -3 -7 5 -5 1 6 -8 10 -9 24 -15 32 -12 7 3 28 -2 45 -11 31 -16 31 -17
14 -37 -11 -11 -26 -24 -35 -29 -14 -7 -16 -5 -12 12 4 14 8 17 13 9 6 -9 9
-9 15 0 8 13 -24 52 -39 47 -6 -3 -19 0 -28 5 -13 6 -18 5 -19 -4 0 -7 -4 -3
-9 10 -11 26 -2 61 10 42 4 -7 12 -10 18 -6z m79 -10 c-3 -3 -12 -4 -19 -1 -8
3 -5 6 6 6 11 1 17 -2 13 -5z m-669 -34 c-14 -22 -24 -19 -15 5 4 8 11 15 17
15 6 0 6 -7 -2 -20z m456 5 c-4 -8 -11 -12 -16 -9 -6 4 -5 10 3 15 19 12 19
11 13 -6z m115 -25 l25 0 -22 -16 c-13 -9 -27 -27 -32 -40 -5 -13 -17 -24 -27
-23 -16 0 -16 1 1 8 16 6 17 8 4 13 -9 4 -21 1 -27 -5 -9 -9 -11 -8 -6 6 5 12
2 17 -11 18 -11 0 -14 3 -7 5 7 3 22 0 33 -6 25 -13 25 -13 35 20 7 22 6 23
-8 12 -13 -11 -15 -10 -10 8 4 15 9 18 16 11 6 -6 22 -11 36 -11z m-511 -71
c-3 -8 -7 -3 -11 10 -4 17 -3 21 5 13 5 -5 8 -16 6 -23z m542 21 c-12 -8 -12
-10 -1 -10 8 0 11 -3 8 -7 -4 -3 -2 -12 4 -19 7 -8 7 -14 -1 -19 -5 -3 -10 1
-10 9 0 20 -14 20 -34 0 -9 -9 -16 -11 -16 -4 0 6 -5 8 -12 4 -7 -4 -8 -3 -4
5 4 6 11 9 15 7 9 -6 36 11 37 24 3 18 4 20 17 20 8 0 7 -4 -3 -10z m55 -80
c-3 -5 1 -10 7 -13 8 -2 9 -8 4 -13 -5 -5 -11 -4 -13 4 -5 14 -30 16 -35 2 -2
-5 -9 -6 -17 -1 -10 6 -5 11 18 16 28 6 30 9 19 23 -12 15 -11 16 4 3 10 -7
16 -17 13 -21z m-85 -15 c0 -8 -7 -15 -15 -15 -9 0 -12 6 -9 15 4 8 10 15 15
15 5 0 9 -7 9 -15z m-315 -55 c3 -5 1 -10 -4 -10 -6 0 -11 5 -11 10 0 6 2 10
4 10 3 0 8 -4 11 -10z m460 1 c3 -5 1 -12 -4 -15 -5 -3 -11 1 -15 9 -6 16 9
21 19 6z m-34 -18 c13 -16 12 -17 -3 -4 -10 7 -18 15 -18 17 0 8 8 3 21 -13z"/>
<path d="M1835 2170 c3 -5 8 -10 11 -10 2 0 4 5 4 10 0 6 -5 10 -11 10 -5 0
-7 -4 -4 -10z"/>
<path d="M785 2140 c-3 -6 -1 -18 4 -27 10 -17 10 -17 11 0 0 10 5 15 10 12 6
-3 10 -2 10 3 0 14 -28 23 -35 12z"/>
<path d="M410 2131 c0 -6 4 -13 10 -16 6 -3 7 1 4 9 -7 18 -14 21 -14 7z"/>
<path d="M1731 1700 c0 -33 1 -34 11 -12 8 17 8 26 0 34 -9 9 -12 4 -11 -22z"/>
<path d="M1698 1533 c7 -3 16 -2 19 1 4 3 -2 6 -13 5 -11 0 -14 -3 -6 -6z"/>
<path d="M1625 890 c-3 -5 1 -10 9 -10 9 0 16 5 16 10 0 6 -4 10 -9 10 -6 0
-13 -4 -16 -10z"/>
<path d="M1730 870 c0 -5 5 -10 11 -10 5 0 7 5 4 10 -3 6 -8 10 -11 10 -2 0
-4 -4 -4 -10z"/>
<path d="M1570 782 c0 -7 -7 -12 -16 -12 -17 0 -15 -21 3 -27 10 -4 26 37 18
46 -3 2 -5 -1 -5 -7z"/>
<path d="M1515 750 c3 -5 8 -10 11 -10 2 0 4 5 4 10 0 6 -5 10 -11 10 -5 0 -7
-4 -4 -10z"/>
<path d="M1830 673 c0 -22 2 -25 10 -13 13 20 13 40 0 40 -5 0 -10 -12 -10
-27z"/>
<path d="M1870 670 c-9 -6 -10 -10 -3 -10 6 0 15 5 18 10 8 12 4 12 -15 0z"/>
<path d="M1837 597 c-7 -5 0 -7 19 -3 23 4 38 0 55 -15 12 -10 25 -17 28 -13
3 3 -2 10 -12 15 -9 6 -15 15 -11 20 7 12 -61 9 -79 -4z"/>
<path d="M1956 502 c-7 -12 -1 -14 29 -14 28 0 35 2 35 11 0 10 -19 9 -37 -2
-6 -4 -13 -2 -15 5 -3 9 -6 9 -12 0z"/>
<path d="M1395 941 c-3 -5 -1 -12 5 -16 5 -3 10 1 10 9 0 18 -6 21 -15 7z"/>
<path d="M220 2239 c0 -5 5 -7 10 -4 6 3 10 8 10 11 0 2 -4 4 -10 4 -5 0 -10
-5 -10 -11z"/>
<path d="M590 2239 c0 -5 5 -7 10 -4 6 3 10 8 10 11 0 2 -4 4 -10 4 -5 0 -10
-5 -10 -11z"/>
<path d="M1125 2240 c-3 -6 1 -7 9 -4 18 7 21 14 7 14 -6 0 -13 -4 -16 -10z"/>
<path d="M2170 2236 c0 -8 -6 -16 -12 -19 -28 -10 0 -15 40 -7 35 6 42 5 38
-7 -3 -8 -1 -11 4 -8 6 3 10 17 10 31 0 21 -4 24 -40 24 -28 0 -40 -4 -40 -14z"/>
<path d="M1480 2205 c0 -9 9 -15 21 -15 18 0 19 2 9 15 -7 8 -16 15 -21 15 -5
0 -9 -7 -9 -15z"/>
<path d="M1535 2170 c2 -31 15 -37 15 -7 0 15 -4 27 -8 27 -5 0 -8 -9 -7 -20z"/>
<path d="M1251 2084 c0 -11 3 -14 6 -6 3 7 2 16 -1 19 -3 4 -6 -2 -5 -13z"/>
<path d="M1496 2031 c-4 -5 -2 -12 3 -15 5 -4 12 -2 15 3 4 5 2 12 -3 15 -5 4
-12 2 -15 -3z"/>
<path d="M1550 2029 c0 -5 5 -7 10 -4 6 3 10 8 10 11 0 2 -4 4 -10 4 -5 0 -10
-5 -10 -11z"/>
<path d="M1144 1953 c10 -11 37 -12 30 -2 -3 5 -12 9 -21 9 -9 0 -13 -3 -9 -7z"/>
<path d="M785 1890 c-16 -7 -17 -9 -3 -9 9 -1 20 4 23 9 7 11 7 11 -20 0z"/>
<path d="M931 1891 c-7 -5 -9 -11 -4 -14 5 -3 15 -2 22 2 7 5 9 11 4 14 -5 3
-15 2 -22 -2z"/>
<path d="M1285 1870 c3 -5 11 -10 16 -10 6 0 7 5 4 10 -3 6 -11 10 -16 10 -6
0 -7 -4 -4 -10z"/>
<path d="M2184 1588 l-19 -23 23 19 c12 11 22 21 22 23 0 8 -8 2 -26 -19z"/>
<path d="M2229 1573 c-13 -16 -12 -17 4 -4 9 7 17 15 17 17 0 8 -8 3 -21 -13z"/>
<path d="M2120 814 c0 -11 5 -14 16 -10 9 3 20 6 25 6 6 0 7 5 4 10 -10 16
-45 12 -45 -6z"/>
<path d="M2228 813 c7 -3 16 -2 19 1 4 3 -2 6 -13 5 -11 0 -14 -3 -6 -6z"/>
<path d="M1120 713 c0 -5 -13 -8 -30 -5 -16 2 -30 2 -30 -1 0 -9 64 -46 72
-41 17 11 7 22 -14 17 -23 -5 -23 -5 -3 10 11 8 17 19 12 23 -4 4 -7 3 -7 -3z"/>
<path d="M2175 632 c-8 -22 1 -26 25 -9 20 14 20 15 1 20 -12 3 -22 -1 -26
-11z"/>
<path d="M2115 620 c-7 -12 2 -12 30 0 19 8 19 9 -2 9 -12 1 -25 -3 -28 -9z"/>
<path d="M2215 590 c-8 -13 5 -13 25 0 13 8 13 10 -2 10 -9 0 -20 -4 -23 -10z"/>
<path d="M450 505 c-7 -8 -23 -15 -36 -15 -13 0 -24 -5 -24 -11 0 -5 -4 -7
-10 -4 -6 4 -11 -8 -11 -27 l-2 -33 -6 35 -6 35 -18 -26 c-13 -20 -17 -49 -18
-131 -1 -58 1 -114 4 -124 3 -10 11 -39 18 -64 10 -39 12 -42 20 -23 4 11 11
64 15 117 6 83 9 96 25 96 11 0 20 10 24 29 9 41 65 96 95 94 15 -1 18 0 8 3
-10 3 -18 12 -18 20 0 8 -5 14 -11 14 -5 0 -7 -5 -3 -12 4 -7 3 -8 -4 -4 -7 4
-12 16 -12 27 0 23 -13 25 -30 4z m-69 -118 c-8 -8 -11 -7 -11 4 0 9 3 19 7
23 4 4 9 2 11 -4 3 -7 -1 -17 -7 -23z"/>
<path d="M5 429 c-11 -17 1 -21 15 -4 8 9 8 15 2 15 -6 0 -14 -5 -17 -11z"/>
<path d="M221 421 c-7 -5 -9 -11 -5 -14 5 -3 15 1 22 9 14 16 5 18 -17 5z"/>
<path d="M928 400 c-10 -17 -22 -28 -28 -25 -5 3 -10 1 -10 -4 0 -15 -38 -52
-42 -40 -2 5 -3 -12 -4 -39 -1 -26 1 -39 3 -29 3 9 9 15 14 12 5 -4 9 0 9 9 0
8 3 16 8 18 4 2 25 27 47 56 21 28 45 52 52 52 20 0 15 -38 -7 -60 -18 -18
-18 -20 -2 -20 17 0 72 60 72 79 0 6 -12 11 -27 11 -16 0 -37 3 -48 5 -15 4
-25 -2 -37 -25z"/>
<path d="M460 402 c0 -4 4 -12 9 -17 5 -6 11 -21 14 -35 3 -16 5 -10 6 18 1
31 -3 42 -14 42 -8 0 -15 -4 -15 -8z"/>
<path d="M670 397 c0 -7 6 -21 14 -32 13 -19 16 -27 16 -42 0 -4 5 -2 11 4 15
15 -7 83 -27 83 -8 0 -14 -6 -14 -13z"/>
<path d="M1168 385 c-3 -14 -1 -25 3 -25 5 0 9 11 9 25 0 14 -2 25 -4 25 -2 0
-6 -11 -8 -25z"/>
<path d="M1292 343 c-11 -26 -23 -68 -26 -93 -6 -43 -6 -44 8 -20 9 14 15 38
16 53 0 15 7 44 15 64 8 20 14 38 11 40 -2 2 -12 -18 -24 -44z"/>
<path d="M282 319 c-13 -62 -12 -68 7 -100 25 -40 27 -56 6 -39 -12 10 -15 9
-15 -5 0 -17 -1 -17 -20 0 -24 22 -26 7 -3 -40 18 -38 11 -60 -11 -30 -12 17
-13 16 -10 -6 1 -13 3 -32 3 -41 1 -9 9 -19 19 -21 9 -3 1 -4 -18 -4 -25 2
-35 -2 -35 -13 0 -12 17 -16 81 -18 l82 -3 -19 65 c-10 36 -21 70 -24 76 -7
11 -12 51 -23 170 l-7 75 -13 -66z"/>
<path d="M735 363 c1 -10 8 -17 14 -15 6 1 11 -3 11 -10 0 -6 3 -9 6 -6 7 8
-14 48 -25 48 -5 0 -8 -8 -6 -17z"/>
<path d="M1241 347 c-13 -33 -15 -113 -3 -121 5 -3 10 16 11 41 1 26 5 49 9
53 5 3 5 16 2 30 l-7 25 -12 -28z"/>
<path d="M9 358 c0 -2 -2 -15 -4 -30 -3 -22 1 -28 14 -28 10 0 24 6 30 14 10
12 8 15 -11 18 -13 2 -22 9 -20 16 2 10 -6 19 -9 10z"/>
<path d="M185 328 c-29 -16 -31 -18 -16 -27 20 -13 2 -83 -22 -87 -14 -2 -16
1 -7 11 8 9 8 15 0 20 -5 3 -10 1 -10 -4 0 -6 -15 -11 -32 -12 -25 -1 -28 -3
-13 -7 32 -11 27 -39 -6 -37 -33 2 -38 -9 -11 -24 13 -8 7 -9 -25 -5 l-43 7 0
-42 c0 -37 2 -42 19 -36 12 4 21 0 25 -12 6 -14 5 -15 -5 -6 -18 18 -39 -3
-39 -37 l0 -28 85 -1 85 0 -16 24 c-11 17 -14 34 -9 56 6 27 5 31 -10 26 -12
-5 -16 -2 -13 11 2 9 10 17 18 17 20 0 30 15 30 43 0 13 9 52 21 88 12 36 19
67 17 69 -2 2 -12 -1 -23 -7z"/>
<path d="M764 315 c-10 -8 -14 -15 -8 -15 6 0 17 7 24 15 16 19 9 19 -16 0z"/>
<path d="M785 297 c-41 -24 -45 -43 -11 -49 27 -5 46 20 25 33 -8 4 -6 10 7
18 11 6 15 10 9 10 -5 0 -19 -6 -30 -12z"/>
<path d="M252 235 c-1 -33 13 -61 23 -46 4 7 3 16 -3 20 -5 3 -12 15 -15 26
l-5 20 0 -20z"/>
<path d="M1228 145 c-20 -43 -27 -53 -32 -39 -3 11 -3 -3 0 -30 8 -69 12 -76
48 -76 39 0 51 9 60 40 5 17 4 21 -2 11 -6 -7 -15 -10 -22 -6 -7 4 -16 2 -21
-6 -18 -29 -9 16 11 56 11 22 20 43 20 47 0 17 -17 6 -33 -22 -28 -47 -39 -35
-16 17 29 68 18 76 -13 8z"/>
<path d="M720 179 c0 -5 5 -7 10 -4 6 3 10 8 10 11 0 2 -4 4 -10 4 -5 0 -10
-5 -10 -11z"/>
<path d="M1045 169 c-4 -6 -13 -8 -21 -5 -8 3 -14 -1 -14 -9 0 -10 10 -15 31
-15 19 0 28 4 23 11 -3 6 0 15 7 20 11 7 11 9 -3 9 -9 0 -20 -5 -23 -11z"/>
<path d="M650 162 c0 -5 -2 -17 -5 -25 -3 -7 3 -25 14 -38 l20 -24 -10 45
c-10 43 -19 64 -19 42z"/>
<path d="M800 153 c0 -4 5 -15 10 -23 8 -13 10 -13 10 2 0 9 -4 20 -10 23 -5
3 -10 3 -10 -2z"/>
<path d="M740 140 l-25 -8 25 -1 c14 0 32 4 40 9 13 9 13 10 0 9 -8 -1 -26 -5
-40 -9z"/>
<path d="M844 125 c-3 -14 -9 -25 -13 -26 -43 -5 -68 -4 -78 4 -7 5 -18 7 -25
4 -7 -2 5 -12 26 -21 32 -13 44 -14 67 -4 33 15 64 68 39 68 -5 0 -12 -11 -16
-25z"/>
<path d="M1151 74 c0 -11 3 -14 6 -6 3 7 2 16 -1 19 -3 4 -6 -2 -5 -13z"/>
</g>
</svg>
